<svg width="76" height="132" viewBox="0 0 76 132" fill="none" xmlns="http://www.w3.org/2000/svg">
<path d="M73.9998 83.1313C74.1987 83.4216 74.4618 83.7429 74.517 84.0775C74.5524 84.2858 74.6231 84.4786 74.643 84.6891C74.6695 84.9905 74.5657 85.2143 74.5148 85.4957C74.4949 85.6065 74.5413 85.6885 74.4971 85.8037C74.4618 85.899 74.3292 85.9544 74.2938 86.0497C74.2253 86.2292 74.2739 86.473 74.2739 86.6658C74.2739 87.1887 74.1501 87.6253 74.1501 88.1438C74.1501 88.6623 74.0175 89.449 74.1612 89.9786C74.212 90.1692 74.2761 90.2667 74.2739 90.4816C74.2695 90.7276 74.2739 90.9714 74.2739 91.2173C74.2739 91.5364 74.3181 91.7846 74.3689 92.0904C74.3999 92.2766 74.4352 92.507 74.4021 92.6976C74.3667 92.8992 74.2805 93.0388 74.2717 93.2516C74.2606 93.5197 74.2717 93.79 74.2717 94.0582V96.9434C74.2717 97.3334 74.2739 97.7234 74.2717 98.1134C74.2717 98.366 74.2916 98.499 74.3645 98.7294C74.4264 98.92 74.6121 99.279 74.4993 99.474C74.4198 99.6091 74.1125 99.7332 73.9711 99.7798C73.8097 99.833 73.7014 99.7997 73.5357 99.8307C73.308 99.8728 73.2881 99.9172 73.1002 100.01C72.6692 100.227 71.9332 100.083 71.4425 100.083H68.7549C68.4366 100.083 68.1183 100.046 67.8155 100.139C67.5856 100.207 67.4154 100.32 67.1745 100.343C66.9336 100.365 66.6684 100.309 66.4186 100.325C65.9677 100.354 65.55 100.456 65.0858 100.451C64.7189 100.449 64.3498 100.451 63.9829 100.451C63.4834 100.451 62.9662 100.493 62.4689 100.458C62.2633 100.442 62.071 100.369 61.8699 100.327C61.6268 100.276 61.6577 100.343 61.4986 100.112C61.4698 100.07 61.461 99.9814 61.4234 99.926C61.2532 99.6756 61.1847 99.6136 61.1206 99.3122C61.0587 99.0286 60.9946 98.7649 60.999 98.4724C61.0057 97.9649 61.1648 97.4818 61.3681 97.0231C61.5715 96.5644 61.819 96.1257 62.0091 95.6581C62.1042 95.421 62.1882 95.1772 62.2368 94.9268C62.2611 94.8005 62.3849 94.2776 62.2876 94.1801L62.0357 93.9297L57.7499 99.7753H54.9363C56.9476 96.7484 58.4838 93.3269 58.8794 90.2534C59.1159 88.4053 59.2596 85.7838 57.9312 84.3434L57.5112 84.7733C56.6492 86.4863 56.6956 88.762 55.953 90.4018C55.2943 91.8577 53.6565 92.6466 53.0332 93.8078C52.3237 95.124 52.2795 97.063 51.4396 98.705C51.3313 98.9156 51.0816 99.6668 50.8605 99.7443C50.708 99.7997 50.7567 99.7355 50.6351 99.7266C50.3898 99.7111 50.14 99.7155 49.8902 99.7155H48.3585C47.3374 99.7155 46.3184 99.7155 45.2973 99.7155C44.3115 99.7155 43.2594 99.6003 42.2803 99.7266C41.7454 99.7953 41.0293 100.108 40.6005 99.6003C40.2778 99.2169 40.3065 98.5809 40.2822 98.1134C40.2424 97.3732 40.1474 96.6774 39.9617 95.9573C39.8225 95.421 39.6722 94.8847 39.46 94.3706C39.3871 94.1956 38.8234 92.8882 38.6157 92.9303C37.0154 93.2626 35.035 92.9103 33.5298 93.0699C31.5052 93.2782 30.3714 94.2554 28.2517 93.7391C26.1785 93.2338 24.1318 90.9758 22.1956 90.3886C21.2695 90.1093 16.0798 89.6573 14.9128 89.6351C13.4231 89.6085 12.0063 90.4174 10.4724 90.1625L10.0723 89.8833C10.0148 89.5554 10.0104 89.223 10.0612 88.895C10.3132 87.1976 14.9702 82.4865 16.4489 81.4361C18.2481 80.1597 23.5881 78.5686 24.0058 76.346C24.397 74.8414 22.967 74.2121 22.3393 73.1396C22.3039 71.677 26.9499 70.6466 28.0727 70.4959C30.8068 70.1281 33.7376 70.8549 36.2993 69.8467C38.0476 69.1597 37.3647 68.1093 38.6488 67.2274C40.1739 67.0435 43.9778 71.0477 44.5967 72.3861C45.8897 75.1805 45.2575 78.1742 46.188 80.9442C51.2076 79.4683 55.3695 79.0384 59.6353 82.6371C59.9624 82.564 59.7326 80.5098 59.7038 80.1774C59.1181 73.9661 54.4323 65.5499 48.4536 63.2187C40.6292 60.1651 31.2312 61.1579 24.3595 55.7576C22.2796 54.1245 20.171 51.5052 18.7542 49.2626C15.9184 51.2215 16.1925 54.0181 13.5446 56.2739C11.5112 58.0046 9.30533 58.3037 7.09728 59.7397C6.17338 60.338 5.45505 61.2155 4.5621 61.816C4.29466 61.9955 4.11342 62.2016 3.82166 62.3456C3.18289 62.6581 2.66569 62.9307 2.259 62.1839C1.6777 61.1158 1.62687 60.0189 1.6136 58.7957C1.60918 58.4677 1.73075 58.2018 1.73959 57.8761C1.7418 57.7697 1.70423 57.619 1.72854 57.5149C1.77053 57.3287 1.90978 57.2135 1.96283 57.0251C2.05566 56.6861 1.98272 56.2606 1.98272 55.9083C1.98272 55.7864 1.98935 55.6623 1.98493 55.5427C1.97388 55.2967 1.87884 55.2391 1.7639 55.0219C1.45005 54.4325 1.6136 53.5793 1.6136 52.9301C1.6136 52.3162 1.6136 51.7024 1.6136 51.0864C1.6136 50.9623 1.62245 50.8293 1.61582 50.7052C1.60697 50.539 1.53625 50.4548 1.51856 50.3418C1.47215 50.0715 1.49204 49.7834 1.49204 49.5042C1.49204 48.7397 1.37048 48.0239 1.36827 47.2594C1.36827 46.7099 1.29091 46.1182 1.48762 45.6108C1.62687 45.254 1.66223 44.9194 1.75727 44.5626C1.80369 44.3853 1.9562 44.279 1.99156 44.0973C2.02913 43.9045 1.9562 43.7095 2.00924 43.51C2.03798 43.4059 2.09544 43.3239 2.1087 43.1998C2.12639 43.0181 2.06671 42.863 2.12639 42.6768C2.18164 42.5018 2.31868 42.4286 2.36067 42.2558C2.39162 42.1317 2.34962 41.9212 2.35183 41.7927C2.35183 41.4315 2.27668 41.1567 2.19933 40.8088C2.10649 40.3833 2.10649 40.0088 2.10649 39.5678C2.10649 38.7612 2.18606 37.928 2.01366 37.1414C1.80369 36.1863 1.86115 35.2312 1.86115 34.2518C1.86115 33.6335 1.82137 32.9975 1.85452 32.3815C1.87 32.1045 1.96283 32.0624 2.05124 31.8186C2.1286 31.6059 2.10649 31.4397 2.10649 31.2093C2.10649 31.0475 2.09544 30.8791 2.10428 30.7173C2.11534 30.4758 2.20817 30.2763 2.2369 30.037C2.28332 29.6204 2.19712 29.2481 2.34962 28.8382C2.4093 28.6764 2.5176 28.5413 2.57507 28.3773C2.63917 28.1933 2.63475 28.0294 2.74747 27.8587C2.91987 27.5928 3.20942 27.3557 3.53875 27.3601C3.88134 27.3624 4.12668 27.6549 4.4759 27.6637C4.78755 27.6726 5.0351 27.6283 5.34895 27.7058C5.79985 27.8188 6.24632 27.9562 6.68838 28.0981C8.41459 28.6521 10.0833 29.3612 11.7676 30.0259L13.9734 26.5823C13.1512 21.3239 13.4938 17.056 16.3008 12.4844C16.8843 11.5338 17.638 10.6984 18.3829 9.87626C19.3488 8.81039 20.3567 7.75338 21.1059 6.51688C21.4552 5.94294 21.7447 5.32691 21.9061 4.67099C21.9834 4.35854 22.063 4.0062 22.0497 3.68267C22.0409 3.43448 21.979 3.48323 21.8574 3.30817C21.7535 3.15749 21.769 3.00237 21.7292 2.83174C21.6939 2.68549 21.6452 2.68106 21.6718 2.52594C21.6806 2.47941 21.8154 2.27332 21.8309 2.23787C22.0077 1.86337 21.9724 1.87223 22.3547 1.9919C22.5736 2.06059 22.8675 2.11821 23.0974 2.14701C23.3648 2.18025 23.4577 2.13815 23.6964 2.26003C23.9815 2.4085 24.2666 2.49935 24.5915 2.51265C25.1839 2.53481 25.7829 2.51043 26.3752 2.51043C26.6272 2.51043 26.8902 2.53037 27.1422 2.51265C27.3941 2.49492 27.5953 2.38855 27.8671 2.38412C28.3821 2.37526 28.8993 2.38634 29.4143 2.38634H33.3729C33.6293 2.38634 33.8879 2.38634 34.1443 2.38634C34.4029 2.3819 34.5134 2.47276 34.7543 2.51708C34.9488 2.55253 35.1699 2.4927 35.3688 2.50821C35.6119 2.52594 35.7269 2.66998 35.9545 2.73646C36.1556 2.79407 36.3612 2.73646 36.5623 2.78521C36.7369 2.82731 36.9337 2.93368 37.1171 2.97578C37.6255 3.09323 38.2355 3.00459 38.7571 3.00459C39.1727 3.00459 39.6479 3.0622 40.0568 2.98021C40.3551 2.92038 40.6204 2.80958 40.9188 2.76305C41.1862 2.72095 41.4934 2.67219 41.7542 2.61015C41.9443 2.56361 42.1344 2.45725 42.3311 2.41958C42.6185 2.36196 42.8616 2.38855 43.1423 2.26889C43.8916 1.95422 44.7713 1.90769 45.6156 1.90104C46.0156 1.89661 46.5881 1.90769 46.8975 2.16696C47.207 2.42622 47.5076 2.72316 47.7153 3.0755C47.8325 3.27493 47.8457 3.35028 47.8126 3.51869C47.7198 3.99512 47.3882 4.50701 47.1959 4.95684C46.6898 5.24049 45.998 4.99673 45.5228 5.16293C41.9797 6.40165 44.5149 8.28299 43.7214 10.8934C43.4783 11.6889 42.5013 11.762 42.1167 12.6972C41.7255 13.6478 41.6946 14.9796 41.2547 16.1164C40.711 17.5346 38.3659 22.0153 36.6397 21.5078C36.2308 21.3881 31.9164 15.7175 31.2864 14.891C30.9394 14.4367 30.3161 14.286 29.8608 13.5902C28.7955 11.9681 29.3171 10.6873 26.9388 9.84081C24.5628 8.98988 23.0687 10.0646 20.7589 9.93831C17.3839 13.2445 14.9636 18.5384 15.3349 23.3426C15.3836 23.9897 16.0643 28.1933 16.5948 28.1978L23.6301 26.6643C24.8833 27.338 24.6733 32.1045 24.2489 33.4008L29.306 39.9689C27.3632 43.4347 23.8599 46.0938 19.9522 46.9603L19.8594 47.7314C22.5979 53.1738 32.6015 60.697 38.7394 57.9226C39.3009 57.67 45.5205 53.1893 45.2177 52.8658C43.2749 52.9256 38.6687 50.8205 38.094 48.9657C37.7426 47.8289 37.915 46.2512 37.4818 44.9593C36.6574 42.5084 33.9454 40.1484 34.7079 37.1081C35.2318 36.3968 37.5371 38.0078 38.3151 38.1319C42.4593 38.7878 45.368 35.3021 49.6471 36.6938C50.708 35.4484 51.0108 33.9437 52.0519 32.6319C53.3051 31.0564 55.312 30.3894 56.5697 28.9047C57.6549 27.6194 57.9246 25.9907 59.3038 24.8007C60.2343 23.9963 66.6551 20.5062 67.663 20.5062C67.9989 20.5062 68.4277 20.4464 68.7062 20.6702C69.0665 22.3477 68.4034 23.9564 68.6532 25.8577C68.9847 28.4016 71.153 30.1234 71.5973 32.6629C72.5808 38.2449 71.3232 43.7826 67.3049 47.8134C67.285 48.1724 68.5758 48.8106 68.8853 49.1607C70.7529 51.2902 72.2891 55.0529 71.3497 57.8805C70.081 58.4434 68.7018 58.3857 67.4132 58.9419C66.3722 59.394 65.6627 60.369 64.8338 60.8056C62.9507 61.8027 60.652 61.0737 60.484 63.7993L59.7281 64.2647C58.1699 63.2896 55.9066 63.1345 54.3992 62.3988C53.4245 61.9224 52.2243 60.6017 51.2208 59.9391C50.7301 59.6156 49.6515 59.4693 49.404 59.1923C48.1419 57.7675 51.1877 55.0419 51.3755 53.6303L51.0352 52.427C49.8062 51.3146 46.6434 53.7699 45.5758 54.5034C44.8553 54.9975 39.6788 58.9176 39.7628 59.2832C42.5035 60.1142 45.7858 60.4643 48.4735 61.3285C56.1983 63.8104 61.2554 74.1921 61.6046 81.8771C61.7748 85.6575 60.5437 89.3116 60.4155 93.0832C64.0801 90.5769 63.7685 85.6664 69.4599 89.4889C69.44 88.1327 69.8047 86.9295 70.7927 85.981C71.2436 85.5489 71.752 85.1855 72.2427 84.7999C72.6913 84.4476 73.0627 84.0155 73.5158 83.6654C73.697 83.5257 73.8186 83.2576 74.0042 83.1512L73.9998 83.1313Z" fill="white"/>
<path d="M31.5362 112.17L23.5815 130.119H19.3621L11.4338 112.17H14.1967L21.5127 128.71L28.8021 112.17H31.5384H31.5362Z" fill="white"/>
<path d="M46.8201 130.121H44.3137V124.812L35.6914 112.17H38.7394L44.3137 120.413L45.6398 122.374L46.8179 120.648L52.6022 112.17H55.6214L46.8201 124.916V130.119V130.121Z" fill="white"/>
<path d="M3.85703 112.174H1.35059V130.116H3.85703V112.174Z" fill="white"/>
<path d="M59.5495 128.947C59.5495 129.117 59.5163 129.275 59.4478 129.419C59.3815 129.563 59.2688 129.687 59.114 129.791C58.9571 129.895 58.7515 129.975 58.4952 130.035C58.2388 130.092 57.9205 130.121 57.5403 130.121C57.1602 130.121 56.8485 130.077 56.6076 129.991C56.3667 129.904 56.1744 129.791 56.0351 129.656C55.8959 129.519 55.7942 129.368 55.7345 129.204C55.6749 129.038 55.6373 128.876 55.624 128.714H56.2009C56.223 129.009 56.3468 129.237 56.5744 129.399C56.8021 129.561 57.1292 129.643 57.558 129.643C57.9868 129.643 58.3493 129.592 58.6057 129.488C58.8621 129.383 58.9925 129.217 58.9947 128.989C58.9969 128.758 58.8864 128.597 58.6565 128.497C58.4289 128.399 58.073 128.335 57.5889 128.306C57.2685 128.295 56.9922 128.273 56.7579 128.24C56.5236 128.207 56.3313 128.153 56.1766 128.076C56.0241 128.001 55.9114 127.896 55.8384 127.766C55.7655 127.635 55.7301 127.464 55.7301 127.252C55.7301 127.094 55.7677 126.946 55.8384 126.804C55.9114 126.662 56.0263 126.538 56.1854 126.429C56.3424 126.323 56.5457 126.237 56.7933 126.172C57.0408 126.108 57.337 126.077 57.6862 126.077C58.0597 126.077 58.3648 126.119 58.599 126.203C58.8333 126.288 59.019 126.394 59.1538 126.525C59.2909 126.656 59.3859 126.804 59.4434 126.968C59.5008 127.132 59.534 127.294 59.5495 127.453H58.9726C58.9593 127.283 58.9173 127.139 58.8488 127.023C58.7803 126.908 58.6875 126.817 58.5747 126.749C58.4598 126.68 58.3272 126.631 58.1747 126.6C58.0222 126.571 57.8542 126.556 57.6729 126.556C57.4652 126.556 57.2773 126.569 57.1093 126.593C56.9413 126.618 56.7955 126.658 56.6739 126.711C56.5523 126.764 56.4573 126.831 56.391 126.913C56.3247 126.995 56.2893 127.094 56.2893 127.209C56.2893 127.325 56.3158 127.416 56.3689 127.491C56.4219 127.566 56.5037 127.626 56.6164 127.67C56.7292 127.717 56.8728 127.75 57.0496 127.775C57.2243 127.799 57.4342 127.817 57.6729 127.832C58.0067 127.85 58.2918 127.881 58.5283 127.923C58.7648 127.965 58.9593 128.027 59.1118 128.111C59.2643 128.196 59.3748 128.304 59.4456 128.439C59.5163 128.575 59.5517 128.743 59.5517 128.947H59.5495Z" fill="white"/>
<path d="M64.3896 126.775V130.116H63.8569V126.775H62.1638V126.294H66.0915V126.775H64.3918H64.3896Z" fill="white"/>
<path d="M69.3979 128.718V130.116H68.8652V126.294H71.4092C71.6082 126.294 71.7916 126.321 71.953 126.374C72.1165 126.427 72.2558 126.504 72.3685 126.609C72.4834 126.713 72.5718 126.844 72.6359 126.999C72.7 127.154 72.731 127.338 72.731 127.544C72.7199 127.85 72.647 128.091 72.51 128.271C72.3729 128.448 72.1851 128.574 71.9463 128.647L72.7907 130.11H72.1652L71.3761 128.718H69.4001H69.3979ZM69.3979 128.237H71.228C71.5441 128.237 71.7784 128.175 71.9331 128.051C72.0878 127.927 72.1652 127.748 72.1652 127.511C72.1652 127.273 72.0922 127.096 71.9463 126.968C71.8005 126.839 71.5816 126.775 71.2877 126.775H69.3979V128.237Z" fill="white"/>
<path d="M74.1191 129.569V130.117H74.6474V129.569H74.1191Z" fill="white"/>
</svg>
