<svg width="131" height="32" viewBox="0 0 131 32" fill="none" xmlns="http://www.w3.org/2000/svg">
<path d="M76.7832 14.6943L79.1523 18.1904L81.2578 15.1133L91.5957 0H96.9912L81.2617 22.7207V32H76.7832V22.5352L61.373 0H66.8203L76.7832 14.6943ZM100.681 24.791C101.348 24.791 101.894 24.8656 102.312 25.0156C102.731 25.1657 103.063 25.3559 103.304 25.5889C103.549 25.8219 103.719 26.0866 103.821 26.3789C103.924 26.6712 103.983 26.9597 104.011 27.2441H102.98C102.957 26.94 102.881 26.6829 102.759 26.4775C102.636 26.2722 102.471 26.1097 102.27 25.9873C102.064 25.8649 101.826 25.778 101.554 25.7227C101.281 25.6714 100.981 25.6445 100.657 25.6445C100.286 25.6445 99.9505 25.6675 99.6504 25.7109C99.3502 25.7544 99.0893 25.8261 98.8721 25.9209C98.6548 26.0157 98.4847 26.1341 98.3662 26.2803C98.2478 26.4264 98.1846 26.6042 98.1846 26.8096C98.1846 27.0149 98.2324 27.1773 98.3271 27.3115C98.422 27.4456 98.5683 27.5519 98.7695 27.6309C98.971 27.7138 99.228 27.773 99.5439 27.8164C99.8559 27.8598 100.231 27.8913 100.657 27.9189C101.254 27.9505 101.764 28.006 102.187 28.0811C102.609 28.1561 102.956 28.267 103.229 28.417C103.501 28.5671 103.699 28.761 103.825 29.002C103.952 29.2429 104.015 29.5429 104.015 29.9062H104.011C104.011 30.2104 103.952 30.4913 103.829 30.748C103.711 31.0046 103.509 31.2256 103.232 31.4111C102.952 31.5967 102.585 31.7391 102.127 31.8457C101.669 31.9484 101.099 32 100.42 32C99.7409 32 99.1843 31.9205 98.7539 31.7666C98.3233 31.6125 97.9793 31.4109 97.7305 31.1699C97.4817 30.9251 97.3 30.6565 97.1934 30.3643C97.0867 30.0681 97.0198 29.7795 96.9961 29.4912H98.0264C98.0659 30.0166 98.2875 30.4236 98.6943 30.7119C99.1012 31.0003 99.6858 31.1465 100.452 31.1465C101.218 31.1465 101.866 31.0557 102.324 30.8701C102.782 30.6845 103.016 30.3883 103.02 29.9814C103.023 29.5706 102.826 29.2822 102.415 29.1045C102.008 28.9307 101.372 28.816 100.507 28.7646C99.9345 28.7449 99.441 28.7057 99.0225 28.6465C98.6038 28.5872 98.2599 28.4918 97.9834 28.3535C97.7108 28.2192 97.5093 28.0338 97.3789 27.8008C97.2486 27.5678 97.1856 27.2638 97.1855 26.8848C97.1855 26.6044 97.2526 26.3396 97.3789 26.0869C97.5093 25.8341 97.7146 25.6125 97.999 25.4189C98.2794 25.2294 98.6427 25.0755 99.085 24.9609C99.5273 24.8464 100.057 24.791 100.681 24.791ZM36.0332 29.4834L49.0605 0H53.9473L39.7305 31.9961H32.1895L18.0205 0H22.958L36.0332 29.4834ZM4.47852 31.9922H0V0.0078125H4.47852V31.9922ZM115.703 26.0352H112.661V31.9922H111.71V26.0352H108.684V25.1777H115.703V26.0352ZM125.208 25.1777C125.563 25.1778 125.891 25.2255 126.18 25.3203C126.472 25.4151 126.72 25.5537 126.922 25.7393C127.127 25.9249 127.286 26.1581 127.4 26.4346C127.515 26.711 127.569 27.0391 127.569 27.4062C127.55 27.9511 127.42 28.3813 127.175 28.7012C126.93 29.0171 126.594 29.2427 126.168 29.373L127.677 31.9805H126.559L125.148 29.499H121.613V31.9922H120.661V25.1777H125.208ZM130.994 31.0166V31.9922H130.051V31.0166H130.994ZM121.613 28.6426H124.884C125.448 28.6426 125.867 28.5316 126.144 28.3105C126.42 28.0893 126.559 27.7693 126.559 27.3467C126.559 26.9242 126.428 26.608 126.168 26.3789C125.907 26.1498 125.516 26.0352 124.99 26.0352H121.613V28.6426Z" fill="white"/>
</svg>
